<svg width="158" height="32" viewBox="0 0 158 32" fill="none" xmlns="http://www.w3.org/2000/svg">
<path d="M22.6187 23.3333V8.66666H25.952V12.9167H29.202V8.66666H32.5354V23.3333H29.202V18.1667H25.952V23.3333H22.6187Z" fill="white"/>
<path d="M40.3413 23.3333H34.3413V8.66666H40.1746C41.9746 8.66666 43.1663 9.425 43.1663 11.05C43.1663 12.2833 42.4996 13.0333 41.4413 13.3583L43.4996 17.5833V18.1667H41.0996L39.1413 14.1667H37.6746V23.3333H40.3413V20H37.6746V17.3333H40.3413V14.6667H37.6746V11.3333H40.0163C40.8913 11.3333 41.3246 11.8 41.3246 12.55C41.3246 13.3 40.8913 13.7667 40.0163 13.7667H37.6746V11.3333H37.6746V23.3333H40.3413Z" fill="white"/>
<path d="M40.3413 23.3333H34.3413V8.66666H40.1746C41.9746 8.66666 43.1663 9.425 43.1663 11.05C43.1663 12.2833 42.4996 13.0333 41.4413 13.3583L43.4996 17.5833V18.1667H41.0996L39.1413 14.1667H37.6746V23.3333H37.6746V20H37.6746V17.3333H37.6746V14.6667H37.6746V11.3333H40.0163C40.8913 11.3333 41.3246 11.8 41.3246 12.55C41.3246 13.3 40.8913 13.7667 40.0163 13.7667H37.6746V11.3333H37.6746V23.3333Z" fill="white"/>
<path d="M46.7248 23.3333V8.66666H54.0581V11.3333H50.0581V14.8333H53.5581V17.5H50.0581V20.6667H54.1415V23.3333H46.7248Z" fill="white"/>
<path d="M63.3838 23.3333H55.9838V8.66666H63.3838V11.3333H59.3838V14.8333H62.8838V17.5H59.3838V20.6667H63.3838V23.3333Z" fill="white"/>
<path d="M72.043 23.3333H64.643V8.66666H72.043V11.3333H68.043V14.8333H71.543V17.5H68.043V20.6667H72.043V23.3333Z" fill="white"/>
<path fill-rule="evenodd" clip-rule="evenodd" d="M16 32C24.8366 32 32 24.8366 32 16C32 7.16344 24.8366 0 16 0C7.16344 0 0 7.16344 0 16C0 24.8366 7.16344 32 16 32ZM19 13H17V17H13V19H17V23H19V19H23V17H19V13Z" fill="#24AE7C"/>
<text x="40" y="24" font-family="Plus Jakarta Sans, sans-serif" font-size="20" font-weight="bold" fill="white">CarePulse</text>
</svg>
